<svg width="41" height="40" viewBox="0 0 41 40" fill="none" xmlns="http://www.w3.org/2000/svg">
<rect x="0.5" width="40" height="40" rx="20" fill="#F4FCFF"/>
<path d="M32.2209 16.3366C31.9434 15.677 31.4823 15.2014 30.8872 14.9619L30.8792 14.9589C30.6084 14.8528 30.32 14.7985 30.0291 14.7989H29.9971C28.6349 14.8194 27.2442 15.977 26.5371 17.6798C26.0185 18.925 25.959 20.2641 26.3781 21.2623C26.6551 21.9224 27.1172 22.3979 27.7148 22.6375L27.7213 22.64C27.9922 22.746 28.2805 22.8003 28.5714 22.8C29.9466 22.8 31.3518 21.6423 32.0719 19.9171C32.584 18.6734 32.6405 17.3352 32.2209 16.3366Z" fill="#387E96"/>
<path d="M26.7781 23.6806C25.9925 23.2085 25.2499 22.762 24.7649 21.9599C23.4267 19.7396 22.6186 18.3994 20.4998 18.3994C18.381 18.3994 17.5709 19.7396 16.2297 21.9599C15.7436 22.763 14.9995 23.21 14.2114 23.6841C13.3078 24.2272 12.3742 24.7883 11.9711 25.8924C11.8144 26.2905 11.7355 26.7148 11.7386 27.1426C11.7386 28.9403 13.1388 30.403 14.859 30.403C15.7466 30.403 16.6913 30.0955 17.6909 29.77C18.652 29.4569 19.6457 29.1334 20.5048 29.1334C21.3639 29.1334 22.355 29.4569 23.3127 29.77C24.3103 30.0935 25.2504 30.401 26.1406 30.401C27.8583 30.401 29.256 28.9383 29.256 27.1406C29.2574 26.7125 29.1768 26.2881 29.0185 25.8904C28.6154 24.7853 27.6813 24.2237 26.7781 23.6806Z" fill="#387E96"/>
<path d="M15.1991 16.6416C15.7941 17.3882 16.5492 17.7993 17.3253 17.7993C17.4313 17.7993 17.5371 17.7914 17.6419 17.7758C19.2606 17.5378 20.2693 15.5625 19.9382 13.2752C19.7997 12.3135 19.4296 11.4179 18.8996 10.7538C18.3055 10.0087 17.5494 9.59817 16.7738 9.59817C16.6678 9.59817 16.562 9.60603 16.4572 9.62167C14.8385 9.8597 13.8299 11.835 14.1609 14.1223C14.2989 15.0824 14.669 15.977 15.1991 16.6416Z" fill="#387E96"/>
<path d="M23.3582 17.7758C23.463 17.7914 23.5688 17.7993 23.6747 17.7993C24.4513 17.7993 25.2059 17.3882 25.801 16.6416C26.3306 15.977 26.6986 15.0824 26.8387 14.1213C27.1697 11.835 26.1611 9.8597 24.5423 9.62067C24.4376 9.60503 24.3317 9.59717 24.2258 9.59717C23.4502 9.59817 22.6941 10.0087 22.1 10.7538C21.5699 11.4179 21.1999 12.3135 21.0619 13.2762C20.7308 15.5625 21.7395 17.5378 23.3582 17.7758Z" fill="#387E96"/>
<path d="M13.2783 22.64L13.2853 22.6375C13.8819 22.3979 14.3434 21.9229 14.62 21.2633C15.039 20.2631 14.98 18.9255 14.4624 17.6803C13.7459 15.957 12.3412 14.7989 10.9675 14.7989C10.6766 14.7985 10.3882 14.8527 10.1173 14.9589L10.1103 14.9614C9.51527 15.1989 9.0537 15.676 8.77716 16.3356C8.35811 17.3357 8.41711 18.6734 8.93469 19.9186C9.65128 21.6418 11.056 22.8 12.4297 22.8C12.7201 22.8002 13.0079 22.7459 13.2783 22.64Z" fill="#387E96"/>
</svg>
